<?xml version="1.0" encoding="utf-8"?>
<!-- Generator: Adobe Illustrator 24.1.0, SVG Export Plug-In . SVG Version: 6.00 Build 0)  -->
<svg version="1.1" id="Layer_1" xmlns="http://www.w3.org/2000/svg" xmlns:xlink="http://www.w3.org/1999/xlink" x="0px" y="0px"
	 viewBox="0 0 181 51" style="enable-background:new 0 0 181 51;" xml:space="preserve">
<style type="text/css">
	.st0{fill:#6699FF;}
	.st1{fill:url(#SVGID_1_);}
	.st2{fill:#FFC840;}
	.st3{fill:#F45D5D;}
	.st4{fill:#082033;}
</style>
<g>
	<path class="st0" d="M41.7,0.5H8.8c-4.6,0-8.3,3.7-8.3,8.3v33c0,4.6,3.7,8.3,8.3,8.3h32.9c4.6,0,8.3-3.7,8.3-8.3v-33
		C50.1,4.2,46.4,0.5,41.7,0.5z M47.6,41.8c0,3.2-2.6,5.9-5.9,5.9H8.8c-3.2,0-5.9-2.6-5.9-5.9v-33c0-3.2,2.6-5.9,5.9-5.9h32.9
		c3.2,0,5.9,2.6,5.9,5.9V41.8z"/>
	<linearGradient id="SVGID_1_" gradientUnits="userSpaceOnUse" x1="8.4485" y1="42.3139" x2="42.1573" y2="8.6051">
		<stop  offset="0" style="stop-color:#44E08D"/>
		<stop  offset="1" style="stop-color:#6699FF"/>
	</linearGradient>
	<path class="st1" d="M45.2,15.3c0,2.9-1.1,5.2-3,7c-1.4,1.4-3.1,2.2-5.1,2.5c-0.8,0.1-1.7,0.1-2.5,0.2c-1.7,0.1-3.5,0.4-5.1,0.9
		c-2.2,0.7-3.4,2.2-3.9,4.4c-0.4,1.7-0.6,3.4-0.7,5.1c-0.2,2.7-1.1,5-3.1,6.9c-1.5,1.4-3.2,2.2-5.1,2.4c-2.6,0.3-5-0.2-7.1-1.8
		c-2.1-1.6-3.3-3.8-3.7-6.4C5.1,32,8.1,27.2,13.1,26c0.8-0.2,1.7-0.3,2.5-0.3c2-0.1,3.9-0.3,5.8-0.8c2.2-0.5,3.5-1.9,4.1-4.1
		c0.5-1.6,0.7-3.3,0.6-5c-0.3-4.8,3.1-9,7.8-9.9c4.8-0.9,9.4,1.9,10.8,6.6c0.1,0.4,0.2,0.8,0.3,1.3C45.1,14.4,45.2,15,45.2,15.3z"/>
	<path class="st2" d="M36.9,44.9c-4.5,0-8.2-3.7-8.2-8.2c0-4.5,3.7-8.3,8.3-8.2c4.5,0,8.2,3.6,8.2,8.2
		C45.2,41.2,41.5,44.9,36.9,44.9z"/>
	<path class="st3" d="M13.9,22.3c-4.5,0-8.2-3.7-8.2-8.2c0-4.5,3.7-8.2,8.2-8.2c4.6,0,8.2,3.7,8.2,8.2
		C22.1,18.6,18.4,22.3,13.9,22.3z"/>
	<path class="st4" d="M61.9,9.1v14.6h0.1c1.1-1.5,2.9-2.1,4.7-2.1c4.8,0,6.2,3.4,6.2,7.6v11h-5.1v-9.5c0-2.2,0.1-4.9-2.8-4.9
		c-3,0-3.1,3.4-3.1,5.6v8.9h-5.1V9.1H61.9z"/>
	<path class="st4" d="M94.1,40.2H89v-1.6h-0.1c-1.1,1.4-3,2.2-4.9,2.2c-5.3,0-8.3-4.8-8.3-9.7c0-4.8,3-9.5,8.2-9.5
		c1.9,0,3.8,0.8,5,2.3v-1.7h5.1V40.2z M89.5,31.2c0-2.4-1.6-5-4.3-5s-4.2,2.6-4.2,5s1.6,5.1,4.2,5.1S89.5,33.6,89.5,31.2z"/>
	<path class="st4" d="M102.1,25.1L102.1,25.1c1.5-2.2,3.7-3.6,6.4-3.6c5.2,0,8.5,4.5,8.5,9.5c0,5.2-3.1,9.8-8.6,9.8
		c-2.5,0-4.7-1.4-6.1-3.4h-0.1v13.2h-3.5V22.1h3.5V25.1z M113.5,31.1c0-3.5-2.1-6.5-5.9-6.5c-3.6,0-5.7,3.1-5.7,6.5
		c0,3.4,2,6.6,5.7,6.6C111.4,37.7,113.5,34.7,113.5,31.1z"/>
	<path class="st4" d="M124.1,25.1L124.1,25.1c1.5-2.2,3.7-3.6,6.4-3.6c5.2,0,8.5,4.5,8.5,9.5c0,5.2-3.1,9.8-8.6,9.8
		c-2.5,0-4.7-1.4-6.1-3.4h-0.1v13.2h-3.5V22.1h3.5V25.1z M135.5,31.1c0-3.5-2.1-6.5-5.9-6.5c-3.6,0-5.7,3.1-5.7,6.5
		c0,3.4,2,6.6,5.7,6.6C133.4,37.7,135.5,34.7,135.5,31.1z"/>
	<path class="st4" d="M159.2,40.1h-1.7v-3.2h-0.1c-1.3,2.3-4.2,3.6-6.8,3.6c-5.4,0-8.8-4.2-8.8-9.4c0-5.2,3.4-9.2,8.7-9.2
		c2.7,0,5.4,1.2,6.9,3.5h0.1v-3.1h1.7V40.1z M143.5,31.1c0,4.1,2.7,7.8,7,7.8c4.6,0,7-3.7,7-8c0-4.1-2.8-7.4-7.1-7.4
		C146.3,23.5,143.5,27.2,143.5,31.1z"/>
	<path class="st4" d="M162.5,22.3h1.8l7.6,16.1l6.8-16.1h1.8l-12,28.3h-1.8l4.3-10.1L162.5,22.3z"/>
</g>
</svg>
